<?xml version="1.0" encoding="UTF-8"?>
<!DOCTYPE svg PUBLIC "-//W3C//DTD SVG 1.1//EN" "http://www.w3.org/Graphics/SVG/1.1/DTD/svg11.dtd">
<svg version="1.1" id="Layer_1" xmlns="http://www.w3.org/2000/svg" xmlns:xlink="http://www.w3.org/1999/xlink" x="0px" y="0px" width="21px" height="21px" viewBox="0 0 21 21" enable-background="new 0 0 21 21" xml:space="preserve">
  <g id="icon">
    <line x1="1.5" y1="6.5" x2="19.4" y2="6.5" fill="none" stroke="#434a54" stroke-width="1" stroke-miterlimit="1"/>
    <line x1="6.5" y1="1.5" x2="6.5" y2="4" fill="none" stroke="#434a54" stroke-width="1" stroke-linecap="round" stroke-miterlimit="1" stroke-linejoin="round"/>
    <line x1="14.5" y1="1.5" x2="14.5" y2="4" fill="none" stroke="#434a54" stroke-width="1" stroke-linecap="round" stroke-miterlimit="1" stroke-linejoin="round"/>
    <path d="M5,2.5H2.3c-0.4418,0,-0.8,0.3582,-0.8,0.8v15.4c0,0.4418,0.3582,0.8,0.8,0.8h16.4c0.4418,0,0.8,-0.3582,0.8,-0.8V3.3c0,-0.4418,-0.3582,-0.8,-0.8,-0.8h-2.7" fill="none" stroke="#434a54" stroke-width="1" stroke-linecap="round" stroke-miterlimit="1" stroke-linejoin="round"/>
    <line x1="8" y1="2.5" x2="13" y2="2.5" fill="none" stroke="#434a54" stroke-width="1" stroke-linecap="round" stroke-miterlimit="1" stroke-linejoin="round"/>
    <rect x="12.5" y="13.5" width="4" height="3" fill="none" stroke="#434a54" stroke-width="1" stroke-linecap="round" stroke-miterlimit="1" stroke-linejoin="round"/>
    <rect x="8.5" y="13.5" width="4" height="3" fill="none" stroke="#434a54" stroke-width="1" stroke-linecap="round" stroke-miterlimit="1" stroke-linejoin="round"/>
    <rect x="4.5" y="13.5" width="4" height="3" fill="none" stroke="#434a54" stroke-width="1" stroke-linecap="round" stroke-miterlimit="1" stroke-linejoin="round"/>
    <rect x="12.5" y="10.5" width="4" height="3" fill="none" stroke="#434a54" stroke-width="1" stroke-linecap="round" stroke-miterlimit="1" stroke-linejoin="round"/>
    <rect x="8.5" y="10.5" width="4" height="3" fill="none" stroke="#434a54" stroke-width="1" stroke-linecap="round" stroke-miterlimit="1" stroke-linejoin="round"/>
  </g>
</svg>
